<svg xmlns="http://www.w3.org/2000/svg" xmlns:xlink="http://www.w3.org/1999/xlink" viewBox="0 0 581.32 630.23"><defs><style>.cls-1{isolation:isolate;}.cls-2{fill:#ffeb3b;}.cls-3{fill:#2e7d32;}.cls-4{fill:url(#linear-gradient);}.cls-5{fill:#fff;}.cls-6{fill:#1b5e20;opacity:0.2;mix-blend-mode:multiply;}.cls-7{fill:#03a9f4;}.cls-8{fill:#f44336;}</style><linearGradient id="linear-gradient" x1="290.66" y1="583.49" x2="290.66" y2="33.33" gradientUnits="userSpaceOnUse"><stop offset="0" stop-color="#1b5e20"/><stop offset="1" stop-color="#2d7430"/></linearGradient></defs><title>logo_</title><g class="cls-1"><g id="Layer_2" data-name="Layer 2"><g id="Layer_1-2" data-name="Layer 1"><path class="cls-2" d="M10.95,81Q9.79,99.44,9.77,118.22c0,211.72,112.07,397.24,280.11,500.55C458.79,515.66,571.55,329.62,571.55,117.24q0-18.68-1.17-37.07A588,588,0,0,0,10.95,81Z"/><path class="cls-3" d="M289.86,630.23l-5.1-3.13A601,601,0,0,1,78.33,414,596.86,596.86,0,0,1,0,118.22C0,105.76.4,93,1.2,80.34L1.53,75l4.74-2.58A597.8,597.8,0,0,1,575,71.58l4.77,2.58.34,5.41c.79,12.63,1.19,25.3,1.19,37.68a596.85,596.85,0,0,1-78.79,296.6A600.88,600.88,0,0,1,295,627.11ZM20.38,87c-.56,10.48-.84,21-.84,31.25,0,200.18,100.94,382.55,270.36,489.06,170.36-106.37,271.88-289.1,271.88-490,0-10.2-.28-20.62-.83-31A578.34,578.34,0,0,0,20.38,87Z"/><path class="cls-4" d="M38,97.63q-1,16.7-1.06,33.67c0,191.26,101.24,358.86,253,452.19,152.59-93.15,254.46-261.21,254.46-453.07q0-16.88-1.05-33.49A531.22,531.22,0,0,0,38,97.63Z"/><path class="cls-2" d="M45.55,242.63l-7.48-13.73a531,531,0,0,1,505.18-.71l-7.44,13.75a515.35,515.35,0,0,0-490.27.69Z"/><path class="cls-5" d="M107.19,115c2.32,6.11-1,12.76-7.69,15.51-3.88,1.59-5.82,2.4-9.68,4.07L80.6,113.24c4-1.75,6.06-2.6,10.12-4.26C97.77,106.11,104.87,108.87,107.19,115Zm-4.74,1.83c-1.56-4-5.69-5.56-10.07-3.77-2,.83-3,1.25-5.06,2.1l5.61,13.34c2-.83,3-1.23,4.92-2C102.11,124.7,104,120.8,102.45,116.81Z"/><path class="cls-5" d="M128,115.42c-4,1.35-6,2-10,3.47,0,1.79,0,2.68-.07,4.47-2.1.76-3.16,1.15-5.25,1.94.18-10,.35-15,.87-25.06,2.53-.9,3.8-1.34,6.34-2.21,6.65,7.55,9.91,11.37,16.26,19.1-2.14.69-3.21,1-5.34,1.75Zm-2.92-3.53c-2.61-3.12-3.93-4.68-6.58-7.77-.16,4.08-.23,6.11-.34,10.18C121,113.31,122.35,112.83,125.12,111.89Z"/><path class="cls-5" d="M129,95.06c2.24-.72,3.36-1.07,5.6-1.77,4.67,6,7,9.07,11.46,15.19.44-7.58.71-11.37,1.33-19,2.27-.64,3.41-1,5.68-1.57-1.14,9.93-1.62,14.9-2.44,24.81-2.46.71-3.68,1.07-6.13,1.81C138.41,106.68,135.31,102.78,129,95.06Z"/><path class="cls-5" d="M176.26,101.58l1,4.27c-5.88,1.36-8.81,2.08-14.66,3.61L156.69,87c2.08-.55,3.13-.81,5.21-1.34l4.59,18.29C170.39,102.95,172.35,102.48,176.26,101.58Z"/><path class="cls-5" d="M196,97.64c-4.11.78-6.16,1.19-10.26,2.05-.27,1.77-.41,2.65-.67,4.42-2.17.46-3.25.7-5.42,1.19,1.52-9.87,2.36-14.81,4.21-24.68,2.61-.54,3.91-.8,6.52-1.3,5.52,8.4,8.2,12.63,13.41,21.16-2.2.38-3.29.58-5.49,1C197.37,99.93,196.9,99.17,196,97.64Zm-2.39-3.9c-2.14-3.45-3.23-5.18-5.42-8.61-.71,4-1,6-1.7,10C189.31,94.57,190.73,94.29,193.58,93.74Z"/><path class="cls-5" d="M219.92,78.88c-2.88.39-4.32.6-7.2,1l2.81,18.65c-2,.31-3,.46-5.06.79l-3-18.62c-2.86.46-4.29.7-7.14,1.2l-.76-4.32c7.88-1.38,11.84-2,19.76-3.08Z"/><path class="cls-5" d="M247.53,85.68l.76,9c-2,.17-3,.26-5.06.45l-.85-9c-4.12-5.3-6.24-7.94-10.55-13.16,2.4-.27,3.61-.4,6-.64,2.73,3.62,4.08,5.44,6.73,9.1,2-4.07,3-6.1,5-10.15,2.41-.19,3.62-.28,6-.44C252.28,76.76,250.66,79.73,247.53,85.68Z"/><path class="cls-5" d="M256.91,82.41c-.45-6.79,5.43-12.49,13.26-12.8s14.17,4.91,14.25,11.72-5.84,12.14-13.3,12.43S257.35,89.17,256.91,82.41Zm22.29-1c-.1-4.48-4-7.56-8.85-7.36s-8.5,3.56-8.25,8,4.11,7.38,8.85,7.19S279.3,85.87,279.19,81.43Z"/><path class="cls-5" d="M292.18,78.87h-4c.59-3.69.89-5.54,1.5-9.23,2.17,0,3.25,0,5.42,0C293.92,73.34,293.33,75.18,292.18,78.87Z"/><path class="cls-5" d="M315.45,89.12l-.21,4.38c-6-.29-9-.39-15-.5.17-9.29.26-13.94.43-23.23,2.14,0,3.2.06,5.34.12l-.54,18.85C309.47,88.85,311.46,88.92,315.45,89.12Z"/><path class="cls-5" d="M352,73.2l-2.68,23.08c-2-.23-3-.35-5-.56l1-9.57c-3.91-.41-5.86-.6-9.77-.94l-.83,9.59c-2-.18-3.06-.26-5.09-.42l1.77-23.17c2.13.16,3.2.25,5.33.43l-.8,9.19c3.95.34,5.92.53,9.86.95l1-9.18C348.82,72.83,349.87,73,352,73.2Z"/><path class="cls-5" d="M370.83,95c-4.13-.65-6.19-1-10.33-1.53-.85,1.57-1.27,2.36-2.11,3.93-2.19-.29-3.29-.44-5.48-.71,4.74-8.78,7.2-13.15,12.26-21.82,2.63.37,3.94.57,6.57,1,2.36,9.77,3.45,14.66,5.47,24.44-2.2-.38-3.3-.56-5.49-.92C371.37,97.63,371.19,96.76,370.83,95Zm-.93-4.48c-.85-4-1.29-6-2.19-9.93-2,3.54-3,5.32-5,8.87C365.6,89.87,367,90.08,369.9,90.53Z"/><path class="cls-5" d="M391.24,94.7l-3.89-.76-1.51,7.92c-2-.38-3-.57-5-.93l4.12-22.87c4.28.77,6.42,1.18,10.69,2,4.92,1,8.13,5.24,7.22,9.39-.63,2.85-3.23,5-6.45,5.54,1.58,3.91,2.35,5.87,3.85,9.79-2.17-.48-3.25-.71-5.42-1.17C393.42,100.08,392.7,98.28,391.24,94.7ZM388.1,90c2.12.4,3.19.61,5.31,1a3.56,3.56,0,0,0,4.25-2.65,3.52,3.52,0,0,0-2.89-4.08c-2.15-.43-3.22-.64-5.38-1.05Z"/><path class="cls-5" d="M420.08,105.31c-4.06-1.06-6.1-1.57-10.18-2.55l-2.5,3.71c-2.16-.51-3.24-.76-5.41-1.25,5.6-8.27,8.48-12.37,14.39-20.5,2.59.63,3.88,1,6.47,1.62,1.4,10,2,14.93,3.09,24.87-2.16-.6-3.24-.89-5.41-1.46C420.36,108,420.27,107.09,420.08,105.31Zm-.5-4.55c-.46-4-.71-6.06-1.22-10.11-2.36,3.32-3.53,5-5.84,8.34C415.36,99.68,416.77,100,419.59,100.76Z"/><path class="cls-5" d="M443.37,116.38c-2.26-5.28-3.43-7.92-5.86-13.17l-3.08,10.44c-2-.58-3-.87-5-1.44l6.35-22.35c2.07.59,3.11.89,5.18,1.5l-2.91,9.84c4.69-2.89,7.07-4.31,11.89-7.1,2.38.75,3.56,1.13,5.93,1.9-5.26,3-7.86,4.57-13,7.73,2.54,5.78,3.76,8.67,6.1,14.47C446.77,117.46,445.64,117.09,443.37,116.38Z"/><path class="cls-5" d="M469.05,120.78c-4-1.48-6-2.19-9.94-3.58l-2.87,3.43c-2.11-.73-3.17-1.09-5.29-1.79,6.42-7.66,9.71-11.45,16.43-18.93,2.53.89,3.8,1.35,6.32,2.28.42,10.06.55,15.08.64,25.08-2.11-.82-3.16-1.22-5.27-2C469.07,123.46,469.06,122.57,469.05,120.78Zm0-4.58c-.06-4.07-.11-6.11-.23-10.19-2.69,3.07-4,4.61-6.67,7.7C464.87,114.68,466.25,115.18,469,116.19Z"/><path class="cls-5" d="M499.63,117.26c-2.72-1.18-4.08-1.76-6.82-2.89l-7.24,17.41c-1.92-.8-2.89-1.2-4.82-2l7.06-17.48c-2.73-1.1-4.09-1.64-6.83-2.7l1.58-4.09c7.56,2.93,11.32,4.48,18.8,7.71Z"/><path class="cls-5" d="M136.51,159c-2.78-2.23-4.18-3.34-7-5.54-.77,3.5-1.14,5.25-1.84,8.74-2,.76-3,1.14-5.05,1.92,1-5.52,1.61-8.28,2.82-13.8-4.27-3.25-6.44-4.85-10.83-8,2.12-.82,3.18-1.22,5.31-2,2.68,2,4,3,6.64,5,.73-3.23,1.11-4.85,1.9-8.08,2.14-.75,3.21-1.12,5.35-1.85-1.34,5.22-2,7.83-3.18,13.05,4.48,3.48,6.68,5.25,11,8.82C139.59,158,138.56,158.33,136.51,159Z"/><path class="cls-5" d="M157.39,147.9c-3.72,1.1-5.58,1.67-9.28,2.85,0,1.77-.07,2.66-.11,4.43-2,.63-2.94,1-4.89,1.6.27-9.89.48-14.85,1.08-24.78,2.36-.74,3.55-1.11,5.92-1.82,6.08,7.88,9,11.86,14.82,19.89-2,.56-3,.84-5,1.42Zm-2.66-3.68c-2.38-3.25-3.58-4.87-6-8.1-.2,4-.29,6-.43,10.08C150.86,145.4,152.15,145,154.73,144.23Z"/><path class="cls-5" d="M158.51,127.75c2.09-.59,3.13-.87,5.22-1.44,4.24,6.26,6.32,9.41,10.39,15.74.52-7.51.83-11.26,1.53-18.78,2.12-.51,3.18-.76,5.3-1.25-1.23,9.82-1.76,14.73-2.66,24.53-2.28.57-3.42.86-5.69,1.45C167.11,139.83,164.29,135.78,158.51,127.75Z"/><path class="cls-5" d="M190.12,124.47l1.14,5.39c3.75-.8,5.63-1.18,9.4-1.9l.82,4.3c-3.73.71-5.59,1.09-9.31,1.88l1.86,8.77-4.62,1-5.06-22.68c5.88-1.31,8.82-1.92,14.73-3l.82,4.3C196,123.25,194,123.64,190.12,124.47Z"/><path class="cls-5" d="M205.3,135.3c1.44-1.2,2.17-1.79,3.63-3,1.23,2,3.13,3.05,6.09,2.57s3.64-1.76,3.44-3c-.26-1.71-2-2.12-5.73-2.51s-7.72-1.22-8.51-5.56,2.65-7.51,6.91-8.21a9.44,9.44,0,0,1,9.63,3.78c-1.5,1.12-2.25,1.68-3.74,2.81a4.85,4.85,0,0,0-5.17-2.2c-2,.34-3.06,1.53-2.84,2.83s1.34,2,5.17,2.43c4,.5,8.31,1.14,9,5.84.62,4.3-2.55,7.43-7.57,8.26C210.79,140.13,207.23,138.46,205.3,135.3Z"/><path class="cls-5" d="M229.78,113.34l2.9,23.06L228,137l-3.14-23C226.84,113.71,227.82,113.58,229.78,113.34Z"/><path class="cls-5" d="M252.85,129.9l.35,4.37c-6.44.52-9.65.84-16.07,1.59l-.42-3.63c3.28-6.5,5-9.74,8.53-16.19-4,.38-6,.59-10,1.05l-.5-4.35c6.55-.76,9.84-1.08,16.41-1.62l.29,3.61c-3.63,6.41-5.38,9.63-8.74,16.11C246.73,130.42,248.77,130.23,252.85,129.9Z"/><path class="cls-5" d="M270.92,128.78l.19,4.38c-5.52.24-8.28.39-13.8.79l-1.68-23.18c2-.14,3-.21,4.93-.33l1.17,18.82C265.41,129,267.25,128.94,270.92,128.78Z"/><path class="cls-5" d="M278.92,109.65l.57,23.23-4.71.14L274,109.8Z"/><path class="cls-5" d="M308.77,122.38c-.25,6.7-5.29,10.94-12.13,10.86-7.46-.09-12.86-5.39-13-12s5.48-12.23,13-12.14a12.64,12.64,0,0,1,10.75,5.66c-1.7.85-2.55,1.27-4.24,2.13a7.63,7.63,0,0,0-6.59-3.34c-4.72-.05-8.12,3.23-8.09,7.64s3.24,7.54,8.26,7.6c3.78,0,6.23-1.64,7.14-4.28-2.94-.08-4.42-.11-7.36-.14l0-4c4.92.06,7.38.12,12.29.3Z"/><path class="cls-5" d="M318.75,110.29l-1.32,23.2-4.7-.24L313.82,110Z"/><path class="cls-5" d="M345.18,135.9c-1.49-3.22-2.26-4.83-3.81-8-2.2,2.81-3.28,4.22-5.42,7.06-2.12-.21-3.18-.3-5.3-.48,3.32-4.5,5-6.74,8.47-11.18-2.37-4.79-3.6-7.18-6.11-11.94,2.23.19,3.34.29,5.57.51,1.51,2.95,2.26,4.43,3.72,7.39,2.05-2.59,3.09-3.87,5.2-6.44,2.22.26,3.33.39,5.55.68-3.46,4.11-5.16,6.18-8.49,10.35,2.46,5.09,3.65,7.64,6,12.76C348.37,136.28,347.31,136.14,345.18,135.9Z"/><path class="cls-5" d="M362.17,114.7l-3.38,23-4.67-.66,3.14-23C359.23,114.27,360.21,114.41,362.17,114.7Z"/><path class="cls-5" d="M380,136.84l-.83,4.3c-6.36-1.22-9.55-1.78-15.95-2.78l.57-3.61c4.91-5.39,7.42-8.05,12.57-13.31-4-.71-6-1-10-1.67l.68-4.33c6.53,1,9.78,1.59,16.28,2.84l-.68,3.55c-5.23,5.2-7.78,7.84-12.77,13.17C373.94,135.7,376,136.07,380,136.84Z"/><path class="cls-5" d="M406.15,147.17,401.58,146l3.57-14.64c-3.74,3.53-5.58,5.31-9.2,8.91l-.54-.12c-1.71-4.8-2.59-7.2-4.43-12l-3.12,14.71-4.63-1,4.59-22.78c2,.4,3,.61,5,1,1.92,4.9,2.84,7.36,4.63,12.27,3.72-3.66,5.62-5.47,9.46-9.06,2,.48,3,.73,5,1.24Z"/><path class="cls-5" d="M426.18,148.38c-3.72-1.11-5.58-1.65-9.31-2.69l-2.51,3.65c-2-.54-3-.81-4.95-1.33,5.62-8.14,8.5-12.17,14.43-20.15,2.38.67,3.57,1,5.94,1.71.78,9.92,1.08,14.88,1.53,24.76-2-.62-3-.93-4.94-1.53C426.29,151,426.26,150.15,426.18,148.38Zm-.22-4.53c-.21-4-.33-6-.6-10.07-2.37,3.27-3.55,4.91-5.87,8.2C422.08,142.71,423.38,143.08,426,143.85Z"/><path class="cls-5" d="M454.34,142.19c-2.56-.92-3.85-1.36-6.42-2.24l-6.09,17.84c-1.81-.62-2.71-.92-4.52-1.52l5.91-17.9c-2.57-.85-3.85-1.26-6.42-2.07l1.32-4.18c7.12,2.24,10.66,3.43,17.7,5.95Z"/><path class="cls-5" d="M464.17,141.13,456,162.87c-1.79-.68-2.69-1-4.48-1.67l8-21.82C461.35,140.07,462.29,140.42,464.17,141.13Z"/><path class="cls-6" d="M410.47,302.51c-.64-.59-1.61-1.42-2.83-2.45-6.47-5.5-19.94-16.95-26-29.84-7.81-16.57-17.41-18.1-17.81-18.16h-1.09l-6.91-13.82h.42c6.23.11,11.64.22,15-3.09,2.15-2.11,3.19-5.37,3.19-10,0-4.08-1.31-7.31-3.91-9.6-4.62-4.08-11.72-3.54-12.86-3.42h-134c-1.14-.12-8.23-.66-12.86,3.42-2.59,2.29-3.91,5.52-3.91,9.6,0,4.61,1,7.87,3.19,10,3.36,3.3,8.77,3.2,15,3.09h.42l-6.9,13.8h-.81l-.3,0c-.4.06-10,1.59-17.81,18.16-6.07,12.89-19.54,24.34-26,29.84-1.22,1-2.19,1.86-2.83,2.45-4.38,4.06-14,20.7-14,43.74,0,34.73,1.22,52.73,4.08,59.83v18.47a15,15,0,0,0,15,15h18.45a15,15,0,0,0,15-15v-8.29H372v8.29a15,15,0,0,0,15,15h18.45a15,15,0,0,0,15-15V406.08c2.86-7.1,4.08-25.11,4.08-59.83C424.46,323.21,414.85,306.56,410.47,302.51Z"/><path class="cls-2" d="M384.51,408.86c-7.58,0-13.75-4.81-13.75-10.73s6.17-10.73,13.75-10.73,13.75,4.81,13.75,10.73S392.09,408.86,384.51,408.86Zm0-17.19c-5.13,0-9.47,3-9.47,6.46s4.34,6.46,9.47,6.46,9.47-3,9.47-6.46S389.64,391.67,384.51,391.67Z"/><path class="cls-7" d="M292.77,220.45h68.72a2.57,2.57,0,0,1,2.57,2.57v5.85a2.57,2.57,0,0,1-2.57,2.57H292.77a.24.24,0,0,1-.24-.24V220.7a.24.24,0,0,1,.24-.24Z"/><polygon class="cls-2" points="290.66 236.77 227.33 236.77 227.33 241.04 290.66 241.04 353.99 241.04 353.99 236.77 290.66 236.77"/><path class="cls-2" d="M410.47,302.51c-.64-.59-1.61-1.42-2.83-2.45-6.47-5.5-19.94-16.95-26-29.84-7.81-16.57-17.41-18.1-17.81-18.16h-1.09l-6.91-13.82h.42c6.23.11,11.64.22,15-3.09,2.15-2.11,3.19-5.37,3.19-10,0-4.08-1.31-7.31-3.91-9.6-4.62-4.08-11.72-3.54-12.86-3.42h-134c-1.14-.12-8.23-.66-12.86,3.42-2.59,2.29-3.91,5.52-3.91,9.6,0,4.61,1,7.87,3.19,10,3.36,3.3,8.77,3.2,15,3.09h.42l-6.9,13.8h-.81l-.3,0c-.4.06-10,1.59-17.81,18.16-6.07,12.89-19.54,24.34-26,29.84-1.22,1-2.19,1.86-2.83,2.45-4.38,4.06-14,20.7-14,43.74,0,34.73,1.22,52.73,4.08,59.83v18.47a15,15,0,0,0,15,15h18.45a15,15,0,0,0,15-15v-8.29H372v8.29a15,15,0,0,0,15,15h18.45a15,15,0,0,0,15-15V406.08c2.86-7.1,4.08-25.11,4.08-59.83C424.46,323.21,414.85,306.56,410.47,302.51Zm-178-68.59H229c-1.37,0-2.7,0-4,0-5.49.1-9.84.18-11.93-1.86-1.28-1.26-1.91-3.53-1.91-6.93,0-2.83.8-4.92,2.45-6.38,3.48-3.09,9.6-2.39,9.66-2.38l67.38,0h67.11l.27,0c.06,0,6.2-.67,9.65,2.37,1.66,1.46,2.46,3.55,2.46,6.39,0,3.4-.62,5.67-1.91,6.93-2.08,2-6.42,2-11.93,1.86-1.27,0-2.6,0-4,0h-3.46l9.07,18.13-67.28,0H223.39ZM416.28,404.79l-.18.41v19.35a10.72,10.72,0,0,1-10.7,10.7H386.94a10.72,10.72,0,0,1-10.7-10.7V412H205.08v12.57a10.72,10.72,0,0,1-10.7,10.7H175.93a10.72,10.72,0,0,1-10.71-10.7V405.2l-.18-.41c-3.49-7.94-3.9-37.22-3.9-58.54,0-22.07,9.25-37.48,12.62-40.6.61-.57,1.54-1.35,2.69-2.33,6.7-5.7,20.65-17.55,27.11-31.28,6.31-13.39,13.54-15.51,14.44-15.73H363.3c1,.24,8.18,2.41,14.45,15.73,6.47,13.73,20.41,25.58,27.11,31.28,1.16,1,2.08,1.77,2.69,2.33,3.37,3.12,12.62,18.53,12.62,40.6C420.18,367.57,419.77,396.85,416.28,404.79Z"/><path class="cls-2" d="M414.8,275.49h-14a9.47,9.47,0,0,0-9.11,6.95L386.57,301H194.75l-5.08-18.59a9.47,9.47,0,0,0-9.11-6.95h-14a12,12,0,0,0,0,24h5.93a9.9,9.9,0,0,1,2.59.35h4.28c0-1.09-.5-4.62-6.87-4.62h-5.93a7.72,7.72,0,0,1,0-15.45h14a5.18,5.18,0,0,1,5,3.8l5.94,21.74H389.84l5.94-21.74a5.18,5.18,0,0,1,5-3.8h14a7.72,7.72,0,0,1,0,15.45h-5.93c-6.37,0-6.87,3.54-6.87,4.62l4.21.15a4.72,4.72,0,0,1,2.66-.5h5.93a12,12,0,0,0,0-24Z"/><path class="cls-2" d="M196.81,408.86c-7.58,0-13.75-4.81-13.75-10.73s6.17-10.73,13.75-10.73,13.75,4.81,13.75,10.73S204.39,408.86,196.81,408.86Zm0-17.19c-5.13,0-9.47,3-9.47,6.46s4.34,6.46,9.47,6.46,9.47-3,9.47-6.46S201.94,391.67,196.81,391.67Z"/><path class="cls-2" d="M290.66,388.31H206.07L222.67,407h136l16.6-18.69Zm66.07,14.41H224.59l-9-10.13H365.73Z"/><path class="cls-2" d="M290.66,344.24H233.2v2.82a30.44,30.44,0,0,0,16.36,27,19.78,19.78,0,0,0,9.14,2.25h63.91a19.81,19.81,0,0,0,9.14-2.25,30.44,30.44,0,0,0,16.36-27v-2.82Zm39.12,26.08a15.54,15.54,0,0,1-7.16,1.76H258.71a15.51,15.51,0,0,1-7.16-1.76,26.17,26.17,0,0,1-14-21.8H343.8A26.18,26.18,0,0,1,329.78,370.31Z"/><path class="cls-2" d="M409.44,364.2c.06-.68.1-1.37.1-2.07v-2.74c0-12.82-10.43-19-23.26-19h-7c-12.82,0-23.26,6.16-23.26,19a9.1,9.1,0,0,0,9.09,9.09h38.94a17.81,17.81,0,0,1-16.62,11.44H193.85a17.82,17.82,0,0,1-16.62-11.44h38.94a9.1,9.1,0,0,0,9.09-9.09c0-12.82-10.43-19-23.26-19h-7c-12.82,0-23.26,6.16-23.26,19v2.74c0,.7,0,1.39.1,2.07H159v4.28h13.75a22.11,22.11,0,0,0,21.14,15.72H387.47a22.1,22.1,0,0,0,21.13-15.72h13.75V364.2Zm-233.39-2.07v-2.74c0-10.47,8.51-14.7,19-14.7h7c10.47,0,19,4.24,19,14.7a4.82,4.82,0,0,1-4.81,4.81h-40A18.34,18.34,0,0,1,176.06,362.12Zm229.2,0a18.34,18.34,0,0,1-.12,2.07h-40a4.82,4.82,0,0,1-4.81-4.81c0-10.47,8.51-14.7,19-14.7h7c10.47,0,19,4.24,19,14.7Z"/><path class="cls-8" d="M217.51,220.45h68.72a2.57,2.57,0,0,1,2.57,2.57v5.85a2.57,2.57,0,0,1-2.57,2.57H217.51a.24.24,0,0,1-.24-.24V220.7a.24.24,0,0,1,.24-.24Z" transform="translate(506.05 451.9) rotate(-180)"/><path class="cls-7" d="M362.09,313.16a1.5,1.5,0,0,0-1.49-1.31h-8.92a1.46,1.46,0,0,0-.92.33c-9.52,7.68-27.51,14.72-60.1,14.72s-50.58-7-60.1-14.72a1.46,1.46,0,0,0-.92-.33h-8.92a1.5,1.5,0,0,0-1.49,1.31l-1.69,9a1.5,1.5,0,0,0,2,1.61l4.79-1.57a10.6,10.6,0,0,1,7.51.33c9.06,3.9,33.94,13.54,58.86,13.54s49.8-9.63,58.86-13.54a10.6,10.6,0,0,1,7.51-.33l4.79,1.57a1.5,1.5,0,0,0,2-1.61Z"/></g></g></g></svg>